<?xml version="1.0" encoding="UTF-8" standalone="no"?>
<!-- Created with Inkscape (http://www.inkscape.org/) -->

<svg
   version="1.1"
   id="svg3150"
   xml:space="preserve"
   width="682.66669"
   height="682.66669"
   viewBox="0 0 682.66669 682.66669"
   xmlns="http://www.w3.org/2000/svg"
   xmlns:svg="http://www.w3.org/2000/svg"><defs
     id="defs3154"><clipPath
       clipPathUnits="userSpaceOnUse"
       id="clipPath3164"><path
         d="M 0,512 H 512 V 0 H 0 Z"
         id="path3162" /></clipPath></defs><g
     id="g3156"
     transform="matrix(1.3333333,0,0,-1.3333333,0,682.66667)"><g
       id="g3158"><g
         id="g3160"
         clip-path="url(#clipPath3164)"><g
           id="g3166"
           transform="translate(384.0713,57.5)"><path
             d="m 0,0 c -10.148,0 -19.545,-3.193 -27.263,-8.614 -25.684,26.025 -61.354,42.169 -100.808,42.169 -39.454,0 -75.125,-16.144 -100.809,-42.169 -7.718,5.421 -17.115,8.614 -27.263,8.614 -26.233,0 -47.5,-21.266 -47.5,-47.5 H 47.5 C 47.5,-21.266 26.233,0 0,0"
             style="fill:#d29976;fill-opacity:1;fill-rule:nonzero;stroke:none"
             id="path3168" /></g><g
           id="g3170"
           transform="translate(384.0713,10)"><path
             d="M 0,0 C -22.716,47.915 -71.52,81.055 -128.071,81.055 -184.622,81.055 -233.427,47.915 -256.143,0 Z"
             style="fill:#d29976;fill-opacity:1;fill-rule:nonzero;stroke:none"
             id="path3172" /></g><g
           id="g3174"
           transform="translate(389.4948,222.5542)"><path
             d="m 0,0 c -35.36,9.442 -74.652,0.296 -102.392,-27.445 -27.741,-27.74 -36.887,-67.032 -27.445,-102.392 35.36,-9.442 74.652,-0.296 102.392,27.445 C 0.296,-74.652 9.442,-35.36 0,0"
             style="fill:#aae2c9;fill-opacity:1;fill-rule:nonzero;stroke:none"
             id="path3176" /></g><g
           id="g3178"
           transform="translate(122.5052,222.5542)"><path
             d="m 0,0 c 35.36,9.442 74.652,0.296 102.392,-27.445 27.741,-27.74 36.887,-67.032 27.445,-102.392 -35.36,-9.442 -74.652,-0.296 -102.392,27.445 C -0.296,-74.652 -9.442,-35.36 0,0"
             style="fill:#aae2c9;fill-opacity:1;fill-rule:nonzero;stroke:none"
             id="path3180" /></g><g
           id="g3182"
           transform="translate(376.6812,381.3188)"><path
             d="m 0,0 c 0,66.65 -54.031,120.681 -120.681,120.681 -66.651,0 -120.681,-54.031 -120.681,-120.681 0,-66.65 54.03,-120.681 120.681,-120.681 C -54.031,-120.681 0,-66.65 0,0"
             style="fill:#ffcb7c;fill-opacity:1;fill-rule:nonzero;stroke:none"
             id="path3184" /></g><g
           id="g3186"
           transform="translate(366.6923,429.4745)"><path
             d="m 0,0 c 19.186,-44.135 10.734,-97.399 -25.358,-133.49 -47.129,-47.129 -123.54,-47.129 -170.669,0 -47.129,47.129 -47.129,123.54 0,170.669 36.092,36.092 89.357,44.544 133.492,25.357"
             style="fill:none;stroke:#000000;stroke-width:20;stroke-linecap:round;stroke-linejoin:round;stroke-miterlimit:10;stroke-dasharray:none;stroke-opacity:1"
             id="path3188" /></g><g
           id="g3190"
           transform="translate(341.3345,466.6533)"><path
             d="M 0,0 V 0"
             style="fill:none;stroke:#000000;stroke-width:20;stroke-linecap:round;stroke-linejoin:round;stroke-miterlimit:10;stroke-dasharray:none;stroke-opacity:1"
             id="path3192" /></g><g
           id="g3194"
           transform="translate(280.759,436.2087)"><path
             d="m 0,0 c 0,0 -16.268,12.325 -35.812,6.454 -19.948,-5.993 -24.897,-33.297 -11.344,-43.927 7.782,-6.103 19.492,-11.122 35.273,-16.7 35.32,-12.485 22.263,-62.296 -13.665,-62.535 -14.021,-0.093 -20.576,0.797 -32.892,8.854"
             style="fill:none;stroke:#000000;stroke-width:20;stroke-linecap:round;stroke-linejoin:round;stroke-miterlimit:10;stroke-dasharray:none;stroke-opacity:1"
             id="path3196" /></g><g
           id="g3198"
           transform="translate(256,461.3188)"><path
             d="M 0,0 V -160"
             style="fill:none;stroke:#000000;stroke-width:20;stroke-linecap:round;stroke-linejoin:round;stroke-miterlimit:10;stroke-dasharray:none;stroke-opacity:1"
             id="path3200" /></g><g
           id="g3202"
           transform="translate(256,260.6376)"><path
             d="M 0,0 V -167.921"
             style="fill:none;stroke:#000000;stroke-width:20;stroke-linecap:round;stroke-linejoin:round;stroke-miterlimit:10;stroke-dasharray:none;stroke-opacity:1"
             id="path3204" /></g><g
           id="g3206"
           transform="translate(389.4948,222.5542)"><path
             d="m 0,0 c -35.36,9.442 -74.652,0.296 -102.392,-27.445 -27.741,-27.74 -36.887,-67.032 -27.445,-102.392 35.36,-9.442 74.652,-0.296 102.392,27.445 C 0.296,-74.652 9.442,-35.36 0,0 Z"
             style="fill:none;stroke:#000000;stroke-width:20;stroke-linecap:round;stroke-linejoin:round;stroke-miterlimit:10;stroke-dasharray:none;stroke-opacity:1"
             id="path3208" /></g><g
           id="g3210"
           transform="translate(259.6577,92.717)"><path
             d="M 0,0 56.874,56.874"
             style="fill:none;stroke:#000000;stroke-width:20;stroke-linecap:round;stroke-linejoin:round;stroke-miterlimit:10;stroke-dasharray:none;stroke-opacity:1"
             id="path3212" /></g><g
           id="g3214"
           transform="translate(122.5052,222.5542)"><path
             d="m 0,0 c 35.36,9.442 74.652,0.296 102.392,-27.445 27.741,-27.74 36.887,-67.032 27.445,-102.392 -35.36,-9.442 -74.652,-0.296 -102.392,27.445 C -0.296,-74.652 -9.442,-35.36 0,0 Z"
             style="fill:none;stroke:#000000;stroke-width:20;stroke-linecap:round;stroke-linejoin:round;stroke-miterlimit:10;stroke-dasharray:none;stroke-opacity:1"
             id="path3216" /></g><g
           id="g3218"
           transform="translate(252.3424,92.717)"><path
             d="M 0,0 -56.874,56.874"
             style="fill:none;stroke:#000000;stroke-width:20;stroke-linecap:round;stroke-linejoin:round;stroke-miterlimit:10;stroke-dasharray:none;stroke-opacity:1"
             id="path3220" /></g><g
           id="g3222"
           transform="translate(384.0713,57.5)"><path
             d="m 0,0 c -10.148,0 -19.545,-3.193 -27.263,-8.614 -25.684,26.025 -61.354,42.169 -100.808,42.169 -39.454,0 -75.125,-16.144 -100.809,-42.169 -7.718,5.421 -17.115,8.614 -27.263,8.614 -26.233,0 -47.5,-21.266 -47.5,-47.5 H 47.5 C 47.5,-21.266 26.233,0 0,0 Z"
             style="fill:none;stroke:#000000;stroke-width:20;stroke-linecap:round;stroke-linejoin:round;stroke-miterlimit:10;stroke-dasharray:none;stroke-opacity:1"
             id="path3224" /></g></g></g></g></svg>
