<?xml version="1.0" encoding="UTF-8" standalone="no"?>
<!-- Created with Inkscape (http://www.inkscape.org/) -->

<svg
   version="1.1"
   id="svg3462"
   width="682.66669"
   height="682.66669"
   viewBox="0 0 682.66669 682.66669"
   xmlns="http://www.w3.org/2000/svg"
   xmlns:svg="http://www.w3.org/2000/svg">
  <defs
     id="defs3466">
    <clipPath
       clipPathUnits="userSpaceOnUse"
       id="clipPath3476">
      <path
         d="M 0,512 H 512 V 0 H 0 Z"
         id="path3474" />
    </clipPath>
  </defs>
  <g
     id="g3468"
     transform="matrix(1.3333333,0,0,-1.3333333,0,682.66667)">
    <g
       id="g3470">
      <g
         id="g3472"
         clip-path="url(#clipPath3476)">
        <g
           id="g3478"
           transform="translate(345.2622,364.7695)">
          <path
             d="m 0,0 v 0 c -22.375,22.374 -24.338,57.998 -4.558,82.696 l 40.69,50.808 c 3.981,4.97 11.541,4.97 15.521,0 L 92.344,82.696 C 112.124,57.998 110.161,22.374 87.786,0 63.544,-24.242 24.241,-24.242 0,0"
             style="fill:#00d7f7;fill-opacity:1;fill-rule:nonzero;stroke:none"
             id="path3480" />
        </g>
        <g
           id="g3482"
           transform="translate(471.937,9.999)">
          <path
             d="m 0,0 h -167.849 l -30.063,290 H 30.063 Z"
             style="fill:#baf5fc;fill-opacity:1;fill-rule:nonzero;stroke:none"
             id="path3484" />
        </g>
        <g
           id="g3486"
           transform="translate(491.8218,201.8145)">
          <path
             d="m 0,0 -0.777,-0.215 c -28.452,-28.451 -74.581,-28.451 -103.032,0 -28.452,28.452 -74.581,28.452 -103.032,0 -0.207,-0.053 -0.446,-0.234 -0.703,-0.498 l 19.81,-191.102 h 167.849 z"
             style="fill:#00d7f7;fill-opacity:1;fill-rule:nonzero;stroke:none"
             id="path3488" />
        </g>
        <g
           id="g3490"
           transform="translate(157.1182,501.999)">
          <path
             d="m 0,0 h -78.236 c -4.552,0 -8.243,-3.689 -8.243,-8.242 v -37.536 c 0,-4.552 3.691,-8.243 8.243,-8.243 H 0 c 4.552,0 8.242,3.691 8.242,8.243 V -8.242 C 8.242,-3.689 4.552,0 0,0"
             style="fill:#00e1f8;fill-opacity:1;fill-rule:nonzero;stroke:none"
             id="path3492" />
        </g>
        <g
           id="g3494"
           transform="translate(159.54,424.8105)">
          <path
             d="M 0,0 V 23.168 H -83.08 V 0 c -37.085,-2.28 -66.46,-33.063 -66.46,-70.722 v -315.647 c 0,-15.708 12.734,-28.443 28.442,-28.443 H 38.018 c 15.708,0 28.442,12.735 28.442,28.443 V -70.722 C 66.46,-33.063 37.084,-2.28 0,0"
             style="fill:#baf5fc;fill-opacity:1;fill-rule:nonzero;stroke:none"
             id="path3496" />
        </g>
        <g
           id="g3498"
           transform="translate(225.7549,285.4697)">
          <path
             d="m 0,0 c -29.697,-29.698 -77.847,-29.698 -107.544,0 -29.698,29.697 -74.966,26.505 -107.545,0 -0.185,-0.151 -0.413,-0.342 -0.666,-0.557 v -246.471 c 0,-15.708 12.734,-28.443 28.443,-28.443 h 159.115 c 15.708,0 28.442,12.735 28.442,28.443 l 0,247.256 z"
             style="fill:#00d7f7;fill-opacity:1;fill-rule:nonzero;stroke:none"
             id="path3500" />
        </g>
        <g
           id="g3502"
           transform="translate(157.1182,501.999)">
          <path
             d="m 0,0 h -78.236 c -4.552,0 -8.243,-3.689 -8.243,-8.242 v -37.536 c 0,-4.552 3.691,-8.243 8.243,-8.243 H 0 c 4.552,0 8.242,3.691 8.242,8.243 V -8.242 C 8.242,-3.689 4.552,0 0,0 Z"
             style="fill:none;stroke:#000000;stroke-width:20;stroke-linecap:round;stroke-linejoin:round;stroke-miterlimit:10;stroke-dasharray:none;stroke-opacity:1"
             id="path3504" />
        </g>
        <g
           id="g3506"
           transform="translate(226,203.2812)">
          <path
             d="m 0,0 v 150.808 c 0,37.658 -29.375,68.441 -66.46,70.721 v 23.168 h -83.08 V 221.529 C -186.625,219.249 -216,188.466 -216,150.808 V -164.84 c 0,-15.708 12.734,-28.442 28.442,-28.442 h 159.116 c 15.708,0 28.442,12.734 28.442,28.442 L 0,-90"
             style="fill:none;stroke:#000000;stroke-width:20;stroke-linecap:round;stroke-linejoin:round;stroke-miterlimit:10;stroke-dasharray:none;stroke-opacity:1"
             id="path3508" />
        </g>
        <g
           id="g3510"
           transform="translate(225.7549,285.4697)">
          <path
             d="m 0,0 c -29.698,-29.698 -77.847,-29.698 -107.544,0 -29.698,29.697 -77.847,29.697 -107.545,0"
             style="fill:none;stroke:#000000;stroke-width:20;stroke-linecap:round;stroke-linejoin:round;stroke-miterlimit:10;stroke-dasharray:none;stroke-opacity:1"
             id="path3512" />
        </g>
        <g
           id="g3514"
           transform="translate(491.0444,201.5996)">
          <path
             d="m 0,0 c -28.451,-28.451 -74.581,-28.451 -103.032,0 -28.451,28.452 -74.58,28.452 -103.032,0"
             style="fill:none;stroke:#000000;stroke-width:20;stroke-linecap:round;stroke-linejoin:round;stroke-miterlimit:10;stroke-dasharray:none;stroke-opacity:1"
             id="path3516" />
        </g>
        <g
           id="g3518"
           transform="translate(471.937,9.999)">
          <path
             d="m 0,0 h -167.849 l -30.063,290 H 30.063 Z"
             style="fill:none;stroke:#000000;stroke-width:20;stroke-linecap:round;stroke-linejoin:round;stroke-miterlimit:10;stroke-dasharray:none;stroke-opacity:1"
             id="path3520" />
        </g>
        <g
           id="g3522"
           transform="translate(345.2622,364.7695)">
          <path
             d="m 0,0 v 0 c -22.375,22.374 -24.338,57.998 -4.558,82.696 l 40.69,50.808 c 3.981,4.97 11.541,4.97 15.521,0 L 92.344,82.696 C 112.124,57.998 110.161,22.374 87.786,0 63.544,-24.242 24.241,-24.242 0,0 Z"
             style="fill:none;stroke:#000000;stroke-width:20;stroke-linecap:round;stroke-linejoin:round;stroke-miterlimit:10;stroke-dasharray:none;stroke-opacity:1"
             id="path3524" />
        </g>
        <g
           id="g3526"
           transform="translate(370.5669,409.1279)">
          <path
             d="M 0,0 13.646,-13.646 39.114,11.821"
             style="fill:none;stroke:#000000;stroke-width:20;stroke-linecap:round;stroke-linejoin:round;stroke-miterlimit:10;stroke-dasharray:none;stroke-opacity:1"
             id="path3528" />
        </g>
        <g
           id="g3530"
           transform="translate(226,158.2812)">
          <path
             d="M 0,0 V 0"
             style="fill:none;stroke:#000000;stroke-width:20;stroke-linecap:round;stroke-linejoin:round;stroke-miterlimit:10;stroke-dasharray:none;stroke-opacity:1"
             id="path3532" />
        </g>
      </g>
    </g>
  </g>
</svg>
