<?xml version="1.0" encoding="UTF-8" standalone="no"?>
<!-- Created with Inkscape (http://www.inkscape.org/) -->

<svg
   version="1.1"
   id="svg633"
   xml:space="preserve"
   width="682.66669"
   height="682.66669"
   viewBox="0 0 682.66669 682.66669"
   xmlns="http://www.w3.org/2000/svg"
   xmlns:svg="http://www.w3.org/2000/svg"><defs
     id="defs637"><clipPath
       clipPathUnits="userSpaceOnUse"
       id="clipPath661"><path
         d="M 0,512 H 512 V 0 H 0 Z"
         id="path659" /></clipPath></defs><g
     id="g639"
     transform="matrix(1.3333333,0,0,-1.3333333,0,682.66667)"><path
       d="m 10.131,255.873 h 114 V 10 h -114 z"
       style="fill:#ffab68;fill-opacity:1;fill-rule:nonzero;stroke:none"
       id="path641" /><g
       id="g643"
       transform="translate(328.2019,450)"><path
         d="M 0,0 H -72.202 V 52 H 0 L -15.333,26 Z"
         style="fill:#ff7c7a;fill-opacity:1;fill-rule:nonzero;stroke:none"
         id="path645" /></g><path
       d="m 501.869,255.873 h -114 V 10 h 114 z"
       style="fill:#ffab68;fill-opacity:1;fill-rule:nonzero;stroke:none"
       id="path647" /><g
       id="g649"
       transform="translate(387.8686,10)"><path
         d="M 0,0 H -264 V 345.502 L -131.869,418.168 0,345.502 Z"
         style="fill:#ffef79;fill-opacity:1;fill-rule:nonzero;stroke:none"
         id="path651" /></g><path
       d="m 319.869,154 h -128 V 10 h 128 z"
       style="fill:#5993af;fill-opacity:1;fill-rule:nonzero;stroke:none"
       id="path653" /><g
       id="g655"><g
         id="g657"
         clip-path="url(#clipPath661)"><g
           id="g663"
           transform="translate(315.8686,291.6667)"><path
             d="m 0,0 c 0,33.137 -26.863,60 -60,60 -33.137,0 -60,-26.863 -60,-60 0,-33.137 26.863,-60 60,-60 33.137,0 60,26.863 60,60"
             style="fill:#ffffff;fill-opacity:1;fill-rule:nonzero;stroke:none"
             id="path665" /></g><g
           id="g667"
           transform="translate(123.8686,177.9372)"><path
             d="M 0,0 V 177.564 L 132.131,250.231 264,177.564 V -167.937 H 0 V -90"
             style="fill:none;stroke:#000000;stroke-width:20;stroke-linecap:round;stroke-linejoin:round;stroke-miterlimit:10;stroke-dasharray:none;stroke-opacity:1"
             id="path669" /></g><g
           id="g671"
           transform="translate(315.8686,291.6667)"><path
             d="m 0,0 c 0,33.137 -26.863,60 -60,60 -33.137,0 -60,-26.863 -60,-60 0,-33.137 26.863,-60 60,-60 33.137,0 60,26.863 60,60 z"
             style="fill:none;stroke:#000000;stroke-width:20;stroke-linecap:round;stroke-linejoin:round;stroke-miterlimit:10;stroke-dasharray:none;stroke-opacity:1"
             id="path673" /></g><g
           id="g675"
           transform="translate(247.1186,282.9167)"><path
             d="m 0,0 8.75,8.75 v 20.5"
             style="fill:none;stroke:#000000;stroke-width:20;stroke-linecap:round;stroke-linejoin:round;stroke-miterlimit:10;stroke-dasharray:none;stroke-opacity:1"
             id="path677" /></g><g
           id="g679"
           transform="translate(387.8686,10)"><path
             d="M 0,0 H 114 V 245.873 H 1"
             style="fill:none;stroke:#000000;stroke-width:20;stroke-linecap:round;stroke-linejoin:round;stroke-miterlimit:10;stroke-dasharray:none;stroke-opacity:1"
             id="path681" /></g><g
           id="g683"
           transform="translate(124.1314,10)"><path
             d="M 0,0 H -114 V 245.873 H -1"
             style="fill:none;stroke:#000000;stroke-width:20;stroke-linecap:round;stroke-linejoin:round;stroke-miterlimit:10;stroke-dasharray:none;stroke-opacity:1"
             id="path685" /></g><g
           id="g687"
           transform="translate(319.8686,11)"><path
             d="M 0,0 V 143 H -128 V 0"
             style="fill:none;stroke:#000000;stroke-width:20;stroke-linecap:round;stroke-linejoin:round;stroke-miterlimit:10;stroke-dasharray:none;stroke-opacity:1"
             id="path689" /></g><g
           id="g691"
           transform="translate(256,428.1678)"><path
             d="M 0,0 V 21.832"
             style="fill:none;stroke:#000000;stroke-width:20;stroke-linecap:round;stroke-linejoin:round;stroke-miterlimit:10;stroke-dasharray:none;stroke-opacity:1"
             id="path693" /></g><g
           id="g695"
           transform="translate(328.2019,450)"><path
             d="M 0,0 H -72.202 V 52 H 0 L -15.333,26 Z"
             style="fill:none;stroke:#000000;stroke-width:20;stroke-linecap:round;stroke-linejoin:round;stroke-miterlimit:10;stroke-dasharray:none;stroke-opacity:1"
             id="path697" /></g><g
           id="g699"
           transform="translate(123.8686,132.9365)"><path
             d="M 0,0 V 0"
             style="fill:none;stroke:#000000;stroke-width:20;stroke-linecap:round;stroke-linejoin:round;stroke-miterlimit:10;stroke-dasharray:none;stroke-opacity:1"
             id="path701" /></g></g></g></g></svg>
