<svg width="80" height="80" viewBox="0 0 80 80" fill="none" xmlns="http://www.w3.org/2000/svg">
<g clip-path="url(#clip0_375_248)">
<path d="M80 0H0V80H80V0Z" fill="#E60020"/>
<path d="M49.3891 31.6185H55.8972C63.3819 31.6185 65.0851 26.7511 65.0851 22.9072C65.0851 18.0632 62.0616 14.4224 56.3269 14.4224H49.3891V31.6185ZM54.3034 17.696H55.8503C58.8778 17.696 59.8974 20.243 59.8974 22.8837C59.8974 26.9113 57.9168 28.3449 55.5964 28.3449H54.2995V17.6999L54.3034 17.696ZM31.9195 31.6185H35.697V21.8837H35.7439L42.752 31.6185H46.4358V14.4224H42.6583V23.5439H42.6114L36.4939 14.4224H31.9234V31.6185H31.9195ZM16.4968 31.6185H29.6889V27.9347H21.4072V24.6377H26.5481V21.0907H21.4072V17.9733H29.4389V14.4263H16.4968V31.6224V31.6185Z" fill="#F6A900"/>
<path d="M51.2837 65.2606H55.491L57.9247 56.0922H57.9716L60.4053 65.2606H64.6125L69.187 48.0645H65.3196L62.9093 57.2524H62.8624L60.5186 48.0645H56.4246L53.9909 57.2524H53.944L51.5806 48.0645H46.7132L51.2876 65.2606H51.2837ZM12.774 65.2606H16.5516V55.5258H16.5985L23.6027 65.2606H27.2865V48.0645H23.5089V57.186H23.4621L17.3446 48.0645H12.774V65.2606Z" fill="#F6A900"/>
<path d="M74.8669 39.8769C74.8669 34.6188 71.898 31.3218 66.9876 31.3218C62.0772 31.3218 59.1123 34.6149 59.1123 39.8769C59.1123 45.1389 62.0811 48.432 66.9876 48.432C71.8941 48.432 74.8669 45.1389 74.8669 39.8769ZM66.9915 34.5954C68.8237 34.5954 69.894 35.6853 69.894 39.8769C69.894 44.3068 68.5854 45.1584 66.9915 45.1584C65.3977 45.1584 64.0891 44.3068 64.0891 39.8769C64.0891 35.8845 65.093 34.5954 66.9915 34.5954ZM51.9127 48.1234H56.6238V31.6265H51.9127V48.1234ZM37.9901 48.1234H49.5962V44.5881H42.7013V31.6265H37.9901V48.1234ZM36.0721 39.8769C36.0721 34.6188 33.1032 31.3218 28.1967 31.3218C23.2902 31.3218 20.3213 34.6149 20.3213 39.8769C20.3213 45.1389 23.2902 48.432 28.1967 48.432C33.1032 48.432 36.0721 45.1389 36.0721 39.8769ZM28.1928 34.5954C30.0249 34.5954 31.0953 35.6853 31.0953 39.8769C31.0953 44.3068 29.7866 45.1584 28.1928 45.1584C26.5989 45.1584 25.2903 44.3068 25.2903 39.8769C25.2903 35.8845 26.2942 34.5954 28.1928 34.5954ZM5.26196 48.1234H9.97313V41.752H12.6139C17.9618 41.752 19.3994 39.2206 19.3994 36.7127C19.3994 35.1188 18.7665 31.6265 13.485 31.6265H5.26196V48.1234ZM9.97313 34.7712H12.1334C13.3561 34.7712 14.4226 35.1657 14.4226 36.7361C14.4226 38.0018 13.485 38.6581 12.0006 38.6112H9.96922V34.7712H9.97313Z" fill="white"/>
<path d="M45.9398 56.6625C45.9398 51.1818 42.8459 47.7441 37.7284 47.7441C32.611 47.7441 29.5171 51.1779 29.5171 56.6625C29.5171 62.1472 32.611 65.581 37.7284 65.581C42.8459 65.581 45.9398 62.1472 45.9398 56.6625ZM37.7284 51.1584C39.6387 51.1584 40.7559 52.2951 40.7559 56.6625C40.7559 61.28 39.3926 62.1667 37.7284 62.1667C36.0643 62.1667 34.7048 61.28 34.7048 56.6625C34.7048 52.4983 35.7518 51.1584 37.7284 51.1584Z" fill="#F6A900"/>
</g>
<defs>
<clipPath id="clip0_375_248">
<rect width="80" height="80" fill="white"/>
</clipPath>
</defs>
</svg>
