<svg width="213" height="80" viewBox="0 0 213 80" fill="none" xmlns="http://www.w3.org/2000/svg">
<g clip-path="url(#clip0_328_188)">
<path d="M62.01 49.34L62.16 52.19C62.18 52.62 61.88 53 61.46 53.08C60.26 53.3 58.6 53.57 57.56 53.57C52.33 53.57 50.74 51.57 50.74 45.02V35.01H48.74C48.26 35.01 47.88 34.62 47.88 34.14V31.18C47.88 30.7 48.26 30.32 48.74 30.32H50.74V26.8C50.74 26.4 51.01 26.06 51.4 25.96L54.87 25.11C55.13 25.05 55.4 25.11 55.6 25.27C55.81 25.44 55.93 25.68 55.93 25.95V30.32H61.21C61.68 30.32 62.07 30.7 62.07 31.18V34.14C62.07 34.62 61.69 35.01 61.21 35.01H55.93V44.29C55.93 47.5 56.04 48.61 58.29 48.61C59.12 48.61 60.42 48.56 61.12 48.52C61.58 48.52 62 48.86 62.01 49.34ZM45.64 41.56C45.64 49.83 42.5 53.52 35.46 53.52C28.42 53.52 25.23 49.83 25.23 41.56C25.23 33.29 28.39 29.78 35.46 29.78C42.53 29.78 45.64 33.52 45.64 41.56ZM40.37 41.56C40.37 36.48 38.99 34.51 35.46 34.51C31.93 34.51 30.5 36.35 30.5 41.56C30.5 46.28 31.29 48.84 35.46 48.84C39.63 48.84 40.37 46.17 40.37 41.56ZM123.06 30.66C122.9 30.45 122.65 30.33 122.39 30.33H119.02C118.63 30.33 118.29 30.59 118.19 30.97L113.68 47.98H113.33L108.82 30.97C108.72 30.59 108.38 30.33 107.99 30.33H104.63C104.36 30.33 104.11 30.45 103.94 30.66C103.78 30.87 103.72 31.15 103.79 31.4L108.76 50.48C109.01 51.43 109.88 53.02 111.61 53.02H112.57C112.49 53.34 112.4 53.68 112.31 53.97L112.26 54.11C111.99 54.99 111.59 56.32 109.13 56.32L104.84 56.06C104.59 56.04 104.36 56.13 104.19 56.3C104.01 56.47 103.92 56.71 103.93 56.95L104.03 59.2C104.04 59.58 104.31 59.9 104.68 60C105.95 60.31 108.36 60.68 110.35 60.75C110.45 60.75 110.53 60.75 110.62 60.75C113.86 60.75 116.06 58.65 117.17 54.52C118.46 49.68 120.07 43.46 121.24 38.92C121.77 36.87 122.23 35.11 122.56 33.86L123.21 31.38C123.28 31.12 123.21 30.85 123.06 30.63V30.66ZM22.07 51.81C22.18 52.07 22.16 52.38 22 52.63C21.83 52.87 21.56 53.02 21.27 53.02H17.25C16.91 53.02 16.6 52.82 16.46 52.51L11.31 40.92C8.74 40.9 6.52 40.77 5.32 40.68V52.17C5.32 52.65 4.94 53.03 4.46 53.03H0.87C0.39 53.03 0 52.65 0 52.17V23.09C0 22.65 0.33 22.28 0.77 22.23C5.39 21.71 9.08 21.66 10.45 21.66C10.92 21.66 11.17 21.66 11.17 21.66C20.03 21.66 21.89 26.89 21.89 31.27C21.89 34.93 20.14 37.57 16.55 39.36L22.07 51.83V51.81ZM11.16 26.64H9.26C7.14 26.64 5.94 26.8 5.32 26.92V35.89C6.33 35.96 8.28 36.06 10.9 36.03C14.28 36 16.38 34.2 16.38 31.35C16.38 29.07 15 26.63 11.15 26.63L11.16 26.64ZM83.17 37.46V52.51C83.17 52.76 83.06 53 82.87 53.16C82.68 53.33 82.43 53.4 82.19 53.37C80.43 53.12 79.59 52.57 78.76 51.93C78.76 51.93 74.83 53.52 71.35 53.52C67.16 53.52 64.76 50.87 64.76 46.25C64.76 41.63 66.96 39.73 72.36 39.33L78 38.88V37.51C78 35.78 76.97 34.78 75.18 34.78C72.71 34.78 69.19 35.07 67.31 35.24C67.07 35.26 66.84 35.19 66.66 35.03C66.49 34.88 66.38 34.65 66.37 34.42L66.26 31.54C66.24 31.1 66.56 30.72 66.98 30.65C68.66 30.38 72.85 29.77 75.46 29.77C80.74 29.77 83.19 32.21 83.19 37.46H83.17ZM72.98 43.19C70.94 43.38 69.98 44.31 69.98 46.1C69.98 47.2 70.28 49.06 72.3 49.06C74.7 49.06 77.95 48.15 77.99 48.15V42.92L72.98 43.19ZM99.99 30.15C97.7 30.29 95.45 31.6 94.04 32.59V31.18C94.04 30.7 93.66 30.32 93.17 30.32H89.71C89.23 30.32 88.84 30.7 88.84 31.18V52.16C88.84 52.64 89.23 53.02 89.71 53.02H93.17C93.65 53.02 94.04 52.64 94.04 52.16V37.66C94.82 37.01 97.24 35.19 100.12 34.94C100.56 34.9 100.91 34.53 100.91 34.08V31.01C100.91 30.77 100.81 30.55 100.64 30.39C100.47 30.22 100.23 30.13 100 30.15H99.99Z" fill="#00408F"/>
<path d="M212.85 38.76V38.65L212.76 38.6C211.06 37.57 208.84 36.99 206.66 36.95C206.62 36.66 206.34 34.62 206.31 34.33C208.39 33.74 210.38 32.61 211.78 31.17L211.85 31.1L211.83 30.99C211.73 30.22 211.43 29.14 211.16 28.48L211.12 28.38L211.02 28.35C209.11 27.8 206.82 27.82 204.71 28.35C204.61 28.08 203.83 26.2 203.72 25.94C205.57 24.81 207.2 23.21 208.17 21.47L208.22 21.39L208.18 21.28C207.9 20.61 207.34 19.65 206.89 19.03L206.83 18.95H206.72C204.75 18.91 202.55 19.51 200.61 20.55C200.44 20.31 199.18 18.67 199.01 18.44C200.52 16.88 201.67 14.91 202.17 12.98L202.2 12.87L202.13 12.79C201.68 12.2 200.9 11.4 200.31 10.94L200.23 10.88L200.12 10.9C198.18 11.39 196.22 12.55 194.66 14.05C194.42 13.87 192.78 12.58 192.55 12.39C193.59 10.55 194.2 8.42 194.2 6.46C194.2 6.4 194.2 6.19 194.2 6.19L194.12 6.13C193.52 5.66 192.56 5.11 191.86 4.82L191.77 4.79L191.68 4.84C189.94 5.81 188.35 7.42001 187.23 9.27001C186.95 9.16001 184.96 8.32 184.7 8.21C184.96 7.17 185.13 6.09 185.13 5.02C185.13 3.95 185 2.88 184.7 1.91L184.68 1.81L184.57 1.77C183.91 1.49 182.86 1.2 182.08 1.09L181.96 1.07L181.89 1.15C180.45 2.54 179.33 4.53 178.73 6.61C178.43 6.56 176.37 6.31 176.06 6.27C176.03 4.11 175.45 1.9 174.42 0.180005L174.37 0.0800049H174.26C173.52 -0.0199951 172.39 -0.0199951 171.66 0.0800049H171.54L171.49 0.180005C170.47 1.88 169.9 4.09 169.86 6.26C169.56 6.3 167.47 6.55 167.16 6.6C166.56 4.51 165.43 2.51 164 1.13L163.92 1.05L163.8 1.07C163.03 1.18 161.96 1.47 161.31 1.74L161.21 1.78L161.17 1.88C160.9 2.86 160.75 3.94 160.75 5.03C160.75 6.12001 160.92 7.17 161.17 8.2C160.91 8.31 158.9 9.18 158.63 9.29C157.5 7.44 155.91 5.81 154.17 4.83L154.08 4.77L153.97 4.81C153.3 5.1 152.34 5.66 151.73 6.12L151.63 6.18V6.47C151.63 8.41 152.23 10.55 153.27 12.4C153.04 12.59 151.53 13.77 151.31 13.95C149.75 12.44 147.78 11.29 145.84 10.78L145.74 10.76L145.67 10.83C145.07 11.28 144.27 12.06 143.81 12.66L143.74 12.75L143.76 12.85C144.25 14.78 145.4 16.75 146.91 18.32C146.75 18.55 145.43 20.27 145.25 20.5C143.37 19.45 141.17 18.82 139.16 18.85H139.06L138.99 18.94C138.55 19.53 137.99 20.47 137.69 21.19L137.65 21.28L137.7 21.38C138.66 23.11 140.29 24.72 142.16 25.85C142.06 26.12 141.3 27.98 141.18 28.25C139.04 27.72 136.76 27.71 134.86 28.27L134.76 28.3L134.72 28.39C134.44 29.06 134.15 30.11 134.04 30.9V31.01L134.1 31.09C135.49 32.52 137.48 33.65 139.57 34.23C139.53 34.52 139.26 36.58 139.22 36.87C137.05 36.91 134.83 37.48 133.12 38.5L133.03 38.55V38.66C132.98 39.03 132.95 39.5 132.95 39.96C132.95 40.42 132.98 40.88 133.02 41.26V41.37L133.12 41.42C134.82 42.44 137.03 43.02 139.21 43.05C139.25 43.35 139.54 45.46 139.58 45.75C137.49 46.36 135.51 47.51 134.12 48.93L134.04 49.02V49.12C134.17 49.9 134.46 50.98 134.73 51.63L134.77 51.73L134.87 51.76C136.8 52.31 139.08 52.29 141.19 51.76C141.3 52.03 142.12 53.9 142.23 54.17C140.38 55.28 138.75 56.88 137.77 58.62L137.72 58.72L137.76 58.82C138.04 59.5 138.61 60.47 139.06 61.07L139.13 61.16H139.23C141.22 61.19 143.42 60.6 145.33 59.55C145.51 59.77 146.8 61.45 146.97 61.68C145.47 63.21 144.31 65.18 143.81 67.14L143.78 67.24L143.84 67.33C144.3 67.92 145.09 68.7 145.67 69.17L145.76 69.24L145.86 69.21C147.79 68.73 149.75 67.58 151.33 66.07C151.57 66.25 153.24 67.54 153.48 67.72C152.45 69.61 151.85 71.76 151.85 73.71V73.93L151.95 74C152.53 74.44 153.48 74.98 154.19 75.3L154.29 75.34L154.39 75.29C156.13 74.32 157.74 72.69 158.86 70.81C159.12 70.92 160.95 71.66 161.22 71.77C160.96 72.8 160.81 73.87 160.81 74.92C160.81 75.97 160.95 77.1 161.23 78.07L161.25 78.17L161.36 78.21C162.02 78.49 163.08 78.78 163.86 78.91L163.98 78.93L164.06 78.84C165.5 77.44 166.63 75.45 167.19 73.38C167.49 73.43 169.6 73.73 169.9 73.76C169.94 75.94 170.53 78.15 171.55 79.84L171.6 79.93H171.72C172.47 80.04 173.58 80.04 174.32 79.94H174.43L174.48 79.83C175.49 78.14 176.07 75.92 176.13 73.74C176.42 73.7 178.4 73.42 178.69 73.37C179.27 75.47 180.41 77.44 181.85 78.84L181.93 78.91H182.03C182.82 78.78 183.88 78.5 184.55 78.23L184.64 78.18L184.67 78.08C184.95 77.1 185.08 76.03 185.08 74.94C185.08 73.85 184.93 72.79 184.67 71.75C184.94 71.65 186.86 70.82 187.12 70.7C188.25 72.56 189.85 74.19 191.58 75.16L191.67 75.2L191.77 75.16C192.46 74.88 193.43 74.32 194.03 73.85L194.12 73.8C194.12 73.8 194.12 73.57 194.12 73.51C194.12 71.59 193.51 69.45 192.5 67.58C192.73 67.4 194.31 66.17 194.53 65.99C196.11 67.49 198.08 68.64 200.01 69.14L200.11 69.17L200.19 69.1C200.78 68.64 201.58 67.84 202.04 67.27L202.11 67.18L202.07 67.09C201.59 65.16 200.44 63.19 198.93 61.62C199.1 61.39 200.38 59.71 200.55 59.47C202.46 60.52 204.66 61.13 206.64 61.08H206.75L206.82 61C207.29 60.4 207.84 59.45 208.12 58.74L208.16 58.65L208.11 58.55C207.17 56.85 205.55 55.23 203.7 54.07C203.81 53.8 204.56 51.96 204.68 51.69C206.78 52.23 209.06 52.25 210.98 51.69L211.07 51.66L211.11 51.56C211.39 50.88 211.68 49.84 211.8 49.06V48.95L211.73 48.87C210.34 47.43 208.36 46.31 206.29 45.72C206.33 45.43 206.62 43.45 206.64 43.16C208.83 43.12 211.05 42.54 212.75 41.52L212.84 41.47V41.36C212.9 41 212.92 40.53 212.92 40.06C212.92 39.59 212.9 39.14 212.85 38.77V38.76ZM172.95 69.74C156.43 69.74 142.98 56.29 142.98 39.76C142.98 23.23 156.43 9.79 172.95 9.79C189.47 9.79 202.92 23.23 202.92 39.76C202.92 56.29 189.48 69.74 172.95 69.74Z" fill="#F6A900"/>
<path d="M172.95 13.4C158.42 13.4 146.59 25.23 146.59 39.77C146.59 54.31 158.42 66.14 172.95 66.14C187.48 66.14 199.32 54.31 199.32 39.77C199.32 25.23 187.49 13.4 172.95 13.4ZM176.26 17.64C176.51 17.43 176.85 17.5 177.18 17.57C182.48 18.85 186.37 21.09 190.16 25.08C190.43 25.36 190.57 25.63 190.57 25.87C190.57 25.89 190.57 25.93 190.57 25.96C190.49 26.32 190.08 26.52 189.72 26.69L178.63 32.06C178.19 32.27 177.78 32.29 177.46 32.09C177.13 31.9 176.93 31.54 176.89 31.06L176 18.77C175.96 18.18 176.04 17.82 176.26 17.64ZM155.67 25.17C159.46 21.18 163.35 18.94 168.65 17.67C168.98 17.6 169.33 17.53 169.56 17.74C169.79 17.92 169.86 18.28 169.82 18.87L168.92 31.16C168.89 31.63 168.7 32 168.36 32.19C168.04 32.38 167.62 32.37 167.19 32.17L156.1 26.8C155.74 26.62 155.32 26.43 155.24 26.06C155.2 25.81 155.33 25.51 155.65 25.18L155.67 25.17ZM153.04 47.94C152.56 48.27 152.2 48.39 151.93 48.29C151.63 48.19 151.53 47.85 151.43 47.53C149.86 42.3 149.86 37.81 151.41 32.53C151.54 32.08 151.73 31.83 151.98 31.74C152.33 31.61 152.71 31.87 153.04 32.1L163.23 39.03C163.62 39.28 163.84 39.64 163.84 40.03C163.84 40.42 163.62 40.76 163.25 41.03L153.04 47.95V47.94ZM169.77 62.37C169.53 62.57 169.19 62.51 168.85 62.42C163.55 61.16 159.66 58.91 155.87 54.92C155.59 54.63 155.46 54.38 155.46 54.16C155.46 54.12 155.46 54.09 155.46 54.05C155.51 53.7 155.94 53.5 156.3 53.32L167.39 47.94C167.82 47.74 168.24 47.73 168.57 47.92C168.89 48.11 169.09 48.47 169.13 48.94L170.03 61.25C170.07 61.83 169.98 62.19 169.77 62.37ZM172.93 47.02C168.96 47.02 165.73 43.79 165.73 39.82C165.73 37.4 166.94 35.15 168.97 33.81C169.64 33.36 170.54 33.55 170.98 34.22C171.42 34.89 171.24 35.8 170.57 36.24C169.36 37.04 168.64 38.38 168.64 39.83C168.64 42.19 170.57 44.12 172.93 44.12C175.29 44.12 177.23 42.19 177.23 39.83C177.23 38.38 176.51 37.03 175.3 36.24C174.63 35.8 174.45 34.89 174.89 34.23C175.33 33.57 176.24 33.38 176.9 33.82C178.93 35.16 180.14 37.41 180.14 39.84C180.14 43.81 176.91 47.04 172.93 47.04V47.02ZM190.19 54.78C186.41 58.76 182.54 61 177.21 62.28C176.76 62.39 176.45 62.36 176.25 62.2C175.97 61.97 176.01 61.5 176.03 61.1L176.91 48.8C176.97 48.32 177.15 47.96 177.49 47.76C177.82 47.58 178.24 47.6 178.65 47.8L189.75 53.17C190.27 53.43 190.54 53.68 190.6 53.95C190.65 54.26 190.43 54.53 190.18 54.78H190.19ZM193.93 31.68C194.23 31.78 194.35 32.11 194.44 32.44C196 37.68 196 42.16 194.44 47.44C194.31 47.89 194.13 48.14 193.89 48.24C193.54 48.35 193.16 48.1 192.84 47.86L182.64 40.94C182.25 40.68 182.02 40.32 182.02 39.94C182.02 39.56 182.25 39.21 182.64 38.94L192.84 32.03C193.3 31.7 193.66 31.59 193.93 31.69V31.68Z" fill="#F6A900"/>
</g>
<defs>
<clipPath id="clip0_328_188">
<rect width="212.92" height="80" fill="white"/>
</clipPath>
</defs>
</svg>
